<svg width="93" height="93" viewBox="0 0 93 93" fill="none" xmlns="http://www.w3.org/2000/svg">
<path d="M86.3471 23.5312C83.3994 24.8711 80.2221 25.7516 76.9299 26.1727C80.2986 24.1438 82.9018 20.9281 84.1268 17.0617C80.9494 18.9758 77.4275 20.3156 73.7143 21.0813C70.69 17.7891 66.4408 15.875 61.6174 15.875C52.6213 15.875 45.2713 23.225 45.2713 32.2977C45.2713 33.5992 45.4244 34.8625 45.6924 36.0492C32.0643 35.3602 19.9291 28.8141 11.8518 18.8992C10.4354 21.3109 9.63145 24.1438 9.63145 27.1297C9.63145 32.8336 12.5025 37.8867 16.9432 40.7578C14.2252 40.7578 11.6986 39.9922 9.47832 38.8438V38.9586C9.47832 46.9211 15.1439 53.582 22.6471 55.075C20.2381 55.7342 17.7092 55.826 15.2588 55.343C16.2985 58.6064 18.3348 61.4619 21.0814 63.5081C23.828 65.5543 27.1468 66.6883 30.5713 66.7508C24.7664 71.3462 17.571 73.8302 10.1674 73.7945C8.86582 73.7945 7.56426 73.718 6.2627 73.5648C13.5361 78.2352 22.1877 80.9531 31.4518 80.9531C61.6174 80.9531 78.1932 55.9172 78.1932 34.2117C78.1932 33.4844 78.1932 32.7953 78.1549 32.068C81.3705 29.7711 84.1268 26.8617 86.3471 23.5312Z" fill="#242323"/>
</svg>
