<svg width="93" height="93" viewBox="0 0 93 93" fill="none" xmlns="http://www.w3.org/2000/svg">
<path d="M38.6484 57.9844L58.5164 46.5L38.6484 35.0156V57.9844ZM82.9016 28.0102C83.3992 29.8094 83.7438 32.2211 83.9734 35.2836C84.2414 38.3461 84.3563 40.9875 84.3563 43.2844L84.5859 46.5C84.5859 54.8836 83.9734 61.0469 82.9016 64.9898C81.9445 68.4352 79.7242 70.6555 76.2789 71.6125C74.4797 72.1102 71.1875 72.4547 66.1344 72.6844C61.1578 72.9523 56.6023 73.0672 52.3914 73.0672L46.3047 73.2969C30.2648 73.2969 20.2734 72.6844 16.3305 71.6125C12.8852 70.6555 10.6648 68.4352 9.70781 64.9898C9.21016 63.1906 8.86563 60.7789 8.63594 57.7164C8.36797 54.6539 8.25312 52.0125 8.25312 49.7156L8.02344 46.5C8.02344 38.1164 8.63594 31.9531 9.70781 28.0102C10.6648 24.5648 12.8852 22.3445 16.3305 21.3875C18.1297 20.8898 21.4219 20.5453 26.475 20.3156C31.4516 20.0477 36.007 19.9328 40.218 19.9328L46.3047 19.7031C62.3445 19.7031 72.3359 20.3156 76.2789 21.3875C79.7242 22.3445 81.9445 24.5648 82.9016 28.0102Z" fill="#E7E2E2"/>
</svg>
