<svg width="66" height="44" viewBox="0 0 66 44" fill="none" xmlns="http://www.w3.org/2000/svg">
<path d="M6.318 16.11C6.768 16.11 7.146 16.056 7.452 15.948C7.758 15.84 8.001 15.696 8.181 15.516C8.367 15.336 8.499 15.126 8.577 14.886C8.661 14.646 8.703 14.391 8.703 14.121C8.703 13.839 8.658 13.587 8.568 13.365C8.478 13.137 8.337 12.945 8.145 12.789C7.953 12.627 7.704 12.504 7.398 12.42C7.098 12.336 6.735 12.294 6.309 12.294H3.87V16.11H6.318ZM3.87 6.858V10.62H5.796C6.624 10.62 7.248 10.47 7.668 10.17C8.094 9.87 8.307 9.393 8.307 8.739C8.307 8.061 8.115 7.578 7.731 7.29C7.347 7.002 6.747 6.858 5.931 6.858H3.87ZM5.931 4.986C6.783 4.986 7.512 5.067 8.118 5.229C8.724 5.391 9.219 5.622 9.603 5.922C9.993 6.222 10.278 6.585 10.458 7.011C10.638 7.437 10.728 7.917 10.728 8.451C10.728 8.757 10.683 9.051 10.593 9.333C10.503 9.609 10.362 9.87 10.17 10.116C9.984 10.356 9.744 10.575 9.45 10.773C9.162 10.971 8.817 11.139 8.415 11.277C10.203 11.679 11.097 12.645 11.097 14.175C11.097 14.727 10.992 15.237 10.782 15.705C10.572 16.173 10.266 16.578 9.864 16.92C9.462 17.256 8.967 17.52 8.379 17.712C7.791 17.904 7.119 18 6.363 18H1.449V4.986H5.931ZM16.9086 8.622C17.5926 8.622 18.2136 8.733 18.7716 8.955C19.3356 9.177 19.8156 9.492 20.2116 9.9C20.6136 10.308 20.9226 10.806 21.1386 11.394C21.3546 11.982 21.4626 12.639 21.4626 13.365C21.4626 14.097 21.3546 14.757 21.1386 15.345C20.9226 15.933 20.6136 16.434 20.2116 16.848C19.8156 17.262 19.3356 17.58 18.7716 17.802C18.2136 18.024 17.5926 18.135 16.9086 18.135C16.2186 18.135 15.5916 18.024 15.0276 17.802C14.4636 17.58 13.9806 17.262 13.5786 16.848C13.1826 16.434 12.8736 15.933 12.6516 15.345C12.4356 14.757 12.3276 14.097 12.3276 13.365C12.3276 12.639 12.4356 11.982 12.6516 11.394C12.8736 10.806 13.1826 10.308 13.5786 9.9C13.9806 9.492 14.4636 9.177 15.0276 8.955C15.5916 8.733 16.2186 8.622 16.9086 8.622ZM16.9086 16.425C17.6766 16.425 18.2436 16.167 18.6096 15.651C18.9816 15.135 19.1676 14.379 19.1676 13.383C19.1676 12.387 18.9816 11.628 18.6096 11.106C18.2436 10.584 17.6766 10.323 16.9086 10.323C16.1286 10.323 15.5496 10.587 15.1716 11.115C14.7996 11.637 14.6136 12.393 14.6136 13.383C14.6136 14.373 14.7996 15.129 15.1716 15.651C15.5496 16.167 16.1286 16.425 16.9086 16.425ZM23.1585 18V8.766H24.5175C24.8055 8.766 24.9945 8.901 25.0845 9.171L25.2285 9.855C25.3905 9.675 25.5585 9.51 25.7325 9.36C25.9125 9.21 26.1015 9.081 26.2995 8.973C26.5035 8.865 26.7195 8.781 26.9475 8.721C27.1815 8.655 27.4365 8.622 27.7125 8.622C28.2945 8.622 28.7715 8.781 29.1435 9.099C29.5215 9.411 29.8035 9.828 29.9895 10.35C30.1335 10.044 30.3135 9.783 30.5295 9.567C30.7455 9.345 30.9825 9.165 31.2405 9.027C31.4985 8.889 31.7715 8.787 32.0595 8.721C32.3535 8.655 32.6475 8.622 32.9415 8.622C33.4515 8.622 33.9045 8.7 34.3005 8.856C34.6965 9.012 35.0295 9.24 35.2995 9.54C35.5695 9.84 35.7735 10.206 35.9115 10.638C36.0555 11.07 36.1275 11.565 36.1275 12.123V18H33.9045V12.123C33.9045 11.535 33.7755 11.094 33.5175 10.8C33.2595 10.5 32.8815 10.35 32.3835 10.35C32.1555 10.35 31.9425 10.389 31.7445 10.467C31.5525 10.545 31.3815 10.659 31.2315 10.809C31.0875 10.953 30.9735 11.136 30.8895 11.358C30.8055 11.58 30.7635 11.835 30.7635 12.123V18H28.5315V12.123C28.5315 11.505 28.4055 11.055 28.1535 10.773C27.9075 10.491 27.5445 10.35 27.0645 10.35C26.7405 10.35 26.4375 10.431 26.1555 10.593C25.8795 10.749 25.6215 10.965 25.3815 11.241V18H23.1585ZM40.4636 15.606C40.7156 15.912 40.9886 16.128 41.2826 16.254C41.5826 16.38 41.8976 16.443 42.2276 16.443C42.5696 16.443 42.8756 16.383 43.1456 16.263C43.4216 16.137 43.6556 15.945 43.8476 15.687C44.0396 15.423 44.1866 15.09 44.2886 14.688C44.3906 14.28 44.4416 13.794 44.4416 13.23C44.4416 12.216 44.2736 11.484 43.9376 11.034C43.6016 10.578 43.1186 10.35 42.4886 10.35C42.0626 10.35 41.6906 10.449 41.3726 10.647C41.0546 10.839 40.7516 11.112 40.4636 11.466V15.606ZM40.4636 9.9C40.8356 9.51 41.2466 9.201 41.6966 8.973C42.1526 8.739 42.6716 8.622 43.2536 8.622C43.7876 8.622 44.2676 8.727 44.6936 8.937C45.1256 9.147 45.4916 9.45 45.7916 9.846C46.0976 10.236 46.3316 10.71 46.4936 11.268C46.6556 11.826 46.7366 12.453 46.7366 13.149C46.7366 13.899 46.6436 14.58 46.4576 15.192C46.2716 15.804 46.0046 16.329 45.6566 16.767C45.3146 17.199 44.9006 17.535 44.4146 17.775C43.9286 18.015 43.3886 18.135 42.7946 18.135C42.5066 18.135 42.2456 18.105 42.0116 18.045C41.7776 17.991 41.5616 17.913 41.3636 17.811C41.1656 17.709 40.9826 17.586 40.8146 17.442C40.6526 17.292 40.4966 17.127 40.3466 16.947L40.2476 17.568C40.2116 17.724 40.1486 17.835 40.0586 17.901C39.9746 17.967 39.8576 18 39.7076 18H38.2406V4.626H40.4636V9.9ZM53.3315 14.058C52.6895 14.088 52.1495 14.145 51.7115 14.229C51.2735 14.307 50.9225 14.409 50.6585 14.535C50.3945 14.661 50.2055 14.808 50.0915 14.976C49.9775 15.144 49.9205 15.327 49.9205 15.525C49.9205 15.915 50.0345 16.194 50.2625 16.362C50.4965 16.53 50.7995 16.614 51.1715 16.614C51.6275 16.614 52.0205 16.533 52.3505 16.371C52.6865 16.203 53.0135 15.951 53.3315 15.615V14.058ZM48.2375 10.053C49.2995 9.081 50.5775 8.595 52.0715 8.595C52.6115 8.595 53.0945 8.685 53.5205 8.865C53.9465 9.039 54.3065 9.285 54.6005 9.603C54.8945 9.915 55.1165 10.29 55.2665 10.728C55.4225 11.166 55.5005 11.646 55.5005 12.168V18H54.4925C54.2825 18 54.1205 17.97 54.0065 17.91C53.8925 17.844 53.8025 17.715 53.7365 17.523L53.5385 16.857C53.3045 17.067 53.0765 17.253 52.8545 17.415C52.6325 17.571 52.4015 17.703 52.1615 17.811C51.9215 17.919 51.6635 18 51.3875 18.054C51.1175 18.114 50.8175 18.144 50.4875 18.144C50.0975 18.144 49.7375 18.093 49.4075 17.991C49.0775 17.883 48.7925 17.724 48.5525 17.514C48.3125 17.304 48.1265 17.043 47.9945 16.731C47.8625 16.419 47.7965 16.056 47.7965 15.642C47.7965 15.408 47.8355 15.177 47.9135 14.949C47.9915 14.715 48.1175 14.493 48.2915 14.283C48.4715 14.073 48.7025 13.875 48.9845 13.689C49.2665 13.503 49.6115 13.341 50.0195 13.203C50.4335 13.065 50.9135 12.954 51.4595 12.87C52.0055 12.78 52.6295 12.726 53.3315 12.708V12.168C53.3315 11.55 53.1995 11.094 52.9355 10.8C52.6715 10.5 52.2905 10.35 51.7925 10.35C51.4325 10.35 51.1325 10.392 50.8925 10.476C50.6585 10.56 50.4515 10.656 50.2715 10.764C50.0915 10.866 49.9265 10.959 49.7765 11.043C49.6325 11.127 49.4705 11.169 49.2905 11.169C49.1345 11.169 49.0025 11.13 48.8945 11.052C48.7865 10.968 48.6995 10.872 48.6335 10.764L48.2375 10.053ZM65.7184 8.766L60.6874 20.538C60.6214 20.694 60.5344 20.811 60.4264 20.889C60.3244 20.973 60.1654 21.015 59.9494 21.015H58.2934L60.0214 17.307L56.2864 8.766H58.2394C58.4134 8.766 58.5484 8.808 58.6444 8.892C58.7464 8.976 58.8214 9.072 58.8694 9.18L60.8314 13.968C60.8974 14.13 60.9514 14.292 60.9934 14.454C61.0414 14.616 61.0864 14.781 61.1284 14.949C61.1824 14.781 61.2364 14.616 61.2904 14.454C61.3444 14.286 61.4044 14.121 61.4704 13.959L63.3244 9.18C63.3724 9.06 63.4504 8.961 63.5584 8.883C63.6724 8.805 63.7984 8.766 63.9364 8.766H65.7184ZM13.005 33.493C13.005 34.447 12.846 35.323 12.528 36.121C12.21 36.919 11.763 37.606 11.187 38.182C10.611 38.758 9.918 39.205 9.108 39.523C8.298 39.841 7.398 40 6.408 40H1.449V26.986H6.408C7.398 26.986 8.298 27.148 9.108 27.472C9.918 27.79 10.611 28.237 11.187 28.813C11.763 29.383 12.21 30.067 12.528 30.865C12.846 31.663 13.005 32.539 13.005 33.493ZM10.521 33.493C10.521 32.779 10.425 32.14 10.233 31.576C10.047 31.006 9.774 30.526 9.414 30.136C9.06 29.74 8.628 29.437 8.118 29.227C7.614 29.017 7.044 28.912 6.408 28.912H3.879V38.074H6.408C7.044 38.074 7.614 37.969 8.118 37.759C8.628 37.549 9.06 37.249 9.414 36.859C9.774 36.463 10.047 35.983 10.233 35.419C10.425 34.849 10.521 34.207 10.521 33.493ZM19.4408 36.058C18.7988 36.088 18.2588 36.145 17.8208 36.229C17.3828 36.307 17.0318 36.409 16.7678 36.535C16.5038 36.661 16.3148 36.808 16.2008 36.976C16.0868 37.144 16.0298 37.327 16.0298 37.525C16.0298 37.915 16.1438 38.194 16.3718 38.362C16.6058 38.53 16.9088 38.614 17.2808 38.614C17.7368 38.614 18.1298 38.533 18.4598 38.371C18.7958 38.203 19.1228 37.951 19.4408 37.615V36.058ZM14.3468 32.053C15.4088 31.081 16.6868 30.595 18.1808 30.595C18.7208 30.595 19.2038 30.685 19.6298 30.865C20.0558 31.039 20.4158 31.285 20.7098 31.603C21.0038 31.915 21.2258 32.29 21.3758 32.728C21.5318 33.166 21.6098 33.646 21.6098 34.168V40H20.6018C20.3918 40 20.2298 39.97 20.1158 39.91C20.0018 39.844 19.9118 39.715 19.8458 39.523L19.6478 38.857C19.4138 39.067 19.1858 39.253 18.9638 39.415C18.7418 39.571 18.5108 39.703 18.2708 39.811C18.0308 39.919 17.7728 40 17.4968 40.054C17.2268 40.114 16.9268 40.144 16.5968 40.144C16.2068 40.144 15.8468 40.093 15.5168 39.991C15.1868 39.883 14.9018 39.724 14.6618 39.514C14.4218 39.304 14.2358 39.043 14.1038 38.731C13.9718 38.419 13.9058 38.056 13.9058 37.642C13.9058 37.408 13.9448 37.177 14.0228 36.949C14.1008 36.715 14.2268 36.493 14.4008 36.283C14.5808 36.073 14.8118 35.875 15.0938 35.689C15.3758 35.503 15.7208 35.341 16.1288 35.203C16.5428 35.065 17.0228 34.954 17.5688 34.87C18.1148 34.78 18.7388 34.726 19.4408 34.708V34.168C19.4408 33.55 19.3088 33.094 19.0448 32.8C18.7808 32.5 18.3998 32.35 17.9018 32.35C17.5418 32.35 17.2418 32.392 17.0018 32.476C16.7678 32.56 16.5608 32.656 16.3808 32.764C16.2008 32.866 16.0358 32.959 15.8858 33.043C15.7418 33.127 15.5798 33.169 15.3998 33.169C15.2438 33.169 15.1118 33.13 15.0038 33.052C14.8958 32.968 14.8088 32.872 14.7428 32.764L14.3468 32.053ZM26.0075 30.766V40H23.7755V30.766H26.0075ZM26.3135 28.075C26.3135 28.267 26.2745 28.447 26.1965 28.615C26.1185 28.783 26.0135 28.93 25.8815 29.056C25.7555 29.182 25.6055 29.284 25.4315 29.362C25.2575 29.434 25.0715 29.47 24.8735 29.47C24.6815 29.47 24.4985 29.434 24.3245 29.362C24.1565 29.284 24.0095 29.182 23.8835 29.056C23.7575 28.93 23.6555 28.783 23.5775 28.615C23.5055 28.447 23.4695 28.267 23.4695 28.075C23.4695 27.877 23.5055 27.691 23.5775 27.517C23.6555 27.343 23.7575 27.193 23.8835 27.067C24.0095 26.941 24.1565 26.842 24.3245 26.77C24.4985 26.692 24.6815 26.653 24.8735 26.653C25.0715 26.653 25.2575 26.692 25.4315 26.77C25.6055 26.842 25.7555 26.941 25.8815 27.067C26.0135 27.193 26.1185 27.343 26.1965 27.517C26.2745 27.691 26.3135 27.877 26.3135 28.075ZM30.3708 32.368C30.6588 31.816 31.0008 31.384 31.3968 31.072C31.7928 30.754 32.2608 30.595 32.8008 30.595C33.2268 30.595 33.5688 30.688 33.8268 30.874L33.6828 32.539C33.6528 32.647 33.6078 32.725 33.5478 32.773C33.4938 32.815 33.4188 32.836 33.3228 32.836C33.2328 32.836 33.0978 32.821 32.9178 32.791C32.7438 32.761 32.5728 32.746 32.4048 32.746C32.1588 32.746 31.9398 32.782 31.7478 32.854C31.5558 32.926 31.3818 33.031 31.2258 33.169C31.0758 33.301 30.9408 33.463 30.8208 33.655C30.7068 33.847 30.5988 34.066 30.4968 34.312V40H28.2738V30.766H29.5788C29.8068 30.766 29.9658 30.808 30.0558 30.892C30.1458 30.97 30.2058 31.114 30.2358 31.324L30.3708 32.368ZM37.2926 30.766V40H35.0606V30.766H37.2926ZM37.5986 28.075C37.5986 28.267 37.5596 28.447 37.4816 28.615C37.4036 28.783 37.2986 28.93 37.1666 29.056C37.0406 29.182 36.8906 29.284 36.7166 29.362C36.5426 29.434 36.3566 29.47 36.1586 29.47C35.9666 29.47 35.7836 29.434 35.6096 29.362C35.4416 29.284 35.2946 29.182 35.1686 29.056C35.0426 28.93 34.9406 28.783 34.8626 28.615C34.7906 28.447 34.7546 28.267 34.7546 28.075C34.7546 27.877 34.7906 27.691 34.8626 27.517C34.9406 27.343 35.0426 27.193 35.1686 27.067C35.2946 26.941 35.4416 26.842 35.6096 26.77C35.7836 26.692 35.9666 26.653 36.1586 26.653C36.3566 26.653 36.5426 26.692 36.7166 26.77C36.8906 26.842 37.0406 26.941 37.1666 27.067C37.2986 27.193 37.4036 27.343 37.4816 27.517C37.5596 27.691 37.5986 27.877 37.5986 28.075ZM45.5079 34.321C45.5079 34.033 45.4659 33.763 45.3819 33.511C45.3039 33.253 45.1839 33.028 45.0219 32.836C44.8599 32.644 44.6529 32.494 44.4009 32.386C44.1549 32.272 43.8669 32.215 43.5369 32.215C42.8949 32.215 42.3879 32.398 42.0159 32.764C41.6499 33.13 41.4159 33.649 41.3139 34.321H45.5079ZM41.2689 35.662C41.3049 36.136 41.3889 36.547 41.5209 36.895C41.6529 37.237 41.8269 37.522 42.0429 37.75C42.2589 37.972 42.5139 38.14 42.8079 38.254C43.1079 38.362 43.4379 38.416 43.7979 38.416C44.1579 38.416 44.4669 38.374 44.7249 38.29C44.9889 38.206 45.2169 38.113 45.4089 38.011C45.6069 37.909 45.7779 37.816 45.9219 37.732C46.0719 37.648 46.2159 37.606 46.3539 37.606C46.5399 37.606 46.6779 37.675 46.7679 37.813L47.4069 38.623C47.1609 38.911 46.8849 39.154 46.5789 39.352C46.2729 39.544 45.9519 39.7 45.6159 39.82C45.2859 39.934 44.9469 40.015 44.5989 40.063C44.2569 40.111 43.9239 40.135 43.5999 40.135C42.9579 40.135 42.3609 40.03 41.8089 39.82C41.2569 39.604 40.7769 39.289 40.3689 38.875C39.9609 38.455 39.6399 37.939 39.4059 37.327C39.1719 36.709 39.0549 35.995 39.0549 35.185C39.0549 34.555 39.1569 33.964 39.3609 33.412C39.5649 32.854 39.8559 32.371 40.2339 31.963C40.6179 31.549 41.0829 31.222 41.6289 30.982C42.1809 30.742 42.8019 30.622 43.4919 30.622C44.0739 30.622 44.6109 30.715 45.1029 30.901C45.5949 31.087 46.0179 31.36 46.3719 31.72C46.7259 32.074 47.0019 32.512 47.1999 33.034C47.4039 33.55 47.5059 34.141 47.5059 34.807C47.5059 35.143 47.4699 35.371 47.3979 35.491C47.3259 35.605 47.1879 35.662 46.9839 35.662H41.2689ZM54.8082 32.566C54.7482 32.662 54.6852 32.731 54.6192 32.773C54.5532 32.809 54.4692 32.827 54.3672 32.827C54.2592 32.827 54.1422 32.797 54.0162 32.737C53.8962 32.677 53.7552 32.611 53.5932 32.539C53.4312 32.461 53.2452 32.392 53.0352 32.332C52.8312 32.272 52.5882 32.242 52.3062 32.242C51.8682 32.242 51.5232 32.335 51.2712 32.521C51.0252 32.707 50.9022 32.95 50.9022 33.25C50.9022 33.448 50.9652 33.616 51.0912 33.754C51.2232 33.886 51.3942 34.003 51.6042 34.105C51.8202 34.207 52.0632 34.3 52.3332 34.384C52.6032 34.462 52.8762 34.549 53.1522 34.645C53.4342 34.741 53.7102 34.852 53.9802 34.978C54.2502 35.098 54.4902 35.254 54.7002 35.446C54.9162 35.632 55.0872 35.857 55.2132 36.121C55.3452 36.385 55.4112 36.703 55.4112 37.075C55.4112 37.519 55.3302 37.93 55.1682 38.308C55.0122 38.68 54.7782 39.004 54.4662 39.28C54.1542 39.55 53.7672 39.763 53.3052 39.919C52.8492 40.069 52.3212 40.144 51.7212 40.144C51.4032 40.144 51.0912 40.114 50.7852 40.054C50.4852 40 50.1942 39.922 49.9122 39.82C49.6362 39.718 49.3782 39.598 49.1382 39.46C48.9042 39.322 48.6972 39.172 48.5172 39.01L49.0302 38.164C49.0962 38.062 49.1742 37.984 49.2642 37.93C49.3542 37.876 49.4682 37.849 49.6062 37.849C49.7442 37.849 49.8732 37.888 49.9932 37.966C50.1192 38.044 50.2632 38.128 50.4252 38.218C50.5872 38.308 50.7762 38.392 50.9922 38.47C51.2142 38.548 51.4932 38.587 51.8292 38.587C52.0932 38.587 52.3182 38.557 52.5042 38.497C52.6962 38.431 52.8522 38.347 52.9722 38.245C53.0982 38.143 53.1882 38.026 53.2422 37.894C53.3022 37.756 53.3322 37.615 53.3322 37.471C53.3322 37.255 53.2662 37.078 53.1342 36.94C53.0082 36.802 52.8372 36.682 52.6212 36.58C52.4112 36.478 52.1682 36.388 51.8922 36.31C51.6222 36.226 51.3432 36.136 51.0552 36.04C50.7732 35.944 50.4942 35.833 50.2182 35.707C49.9482 35.575 49.7052 35.41 49.4892 35.212C49.2792 35.014 49.1082 34.771 48.9762 34.483C48.8502 34.195 48.7872 33.847 48.7872 33.439C48.7872 33.061 48.8622 32.701 49.0122 32.359C49.1622 32.017 49.3812 31.72 49.6692 31.468C49.9632 31.21 50.3262 31.006 50.7582 30.856C51.1962 30.7 51.7002 30.622 52.2702 30.622C52.9062 30.622 53.4852 30.727 54.0072 30.937C54.5292 31.147 54.9642 31.423 55.3122 31.765L54.8082 32.566Z" fill="black"/>
<circle cx="25" cy="28" r="2" fill="#CE2727"/>
<circle cx="36" cy="28" r="2" fill="#CE2727"/>
</svg>
