<svg width="24" height="24" viewBox="0 0 24 24" fill="none" xmlns="http://www.w3.org/2000/svg">
<path d="M24 2.84906C23.1015 3.33794 22.1487 3.65909 21.1731 3.80191C22.201 3.04475 22.9701 1.85384 23.3371 0.45101C22.3717 1.15768 21.3132 1.65293 20.2111 1.92083C19.4701 0.94565 18.4879 0.298907 17.4171 0.0811439C16.3464 -0.136619 15.2472 0.0868006 14.2903 0.716669C13.3335 1.34654 12.5727 2.34756 12.1261 3.56412C11.6796 4.78068 11.5723 6.14462 11.821 7.44388C9.86296 7.32339 7.94737 6.69771 6.19867 5.60749C4.44998 4.51727 2.90727 2.98688 1.67072 1.11569C1.23307 2.04023 1.00309 3.09122 1.00432 4.16104C1.00432 6.26078 1.87441 8.1158 3.19427 9.20187C2.4125 9.17155 1.64794 8.91188 0.964286 8.44452V8.51837C0.96425 9.91705 1.35757 11.2727 2.07755 12.3554C2.79752 13.438 3.79982 14.1811 4.91444 14.4585C4.18875 14.7006 3.42774 14.7363 2.68917 14.5627C3.00344 15.7667 3.61603 16.8196 4.44113 17.5739C5.26623 18.3283 6.26251 18.7463 7.29042 18.7695C6.26887 19.7563 5.09916 20.4857 3.8482 20.9161C2.59725 21.3464 1.28959 21.4693 0 21.2776C2.25085 23.0578 4.871 24.003 7.5471 24C16.606 24 21.5581 14.7713 21.5581 6.76762C21.5581 6.50696 21.5534 6.24341 21.544 5.9842C22.5075 5.12744 23.3392 4.06483 24 2.84906Z" fill="black"/>
</svg>
