<svg width="93" height="93" viewBox="0 0 93 93" fill="none" xmlns="http://www.w3.org/2000/svg">
<path d="M30.2266 8.21875H62.3828C74.6328 8.21875 84.5859 18.1719 84.5859 30.4219V62.5781C84.5859 68.4668 82.2467 74.1142 78.0828 78.2781C73.9189 82.442 68.2715 84.7812 62.3828 84.7812H30.2266C17.9766 84.7812 8.02344 74.8281 8.02344 62.5781V30.4219C8.02344 24.5332 10.3627 18.8858 14.5266 14.7219C18.6905 10.558 24.3379 8.21875 30.2266 8.21875ZM29.4609 15.875C25.8059 15.875 22.3006 17.3269 19.7161 19.9114C17.1316 22.4959 15.6797 26.0012 15.6797 29.6562V63.3437C15.6797 70.9617 21.843 77.125 29.4609 77.125H63.1484C66.8035 77.125 70.3088 75.6731 72.8933 73.0886C75.4777 70.5041 76.9297 66.9988 76.9297 63.3437V29.6562C76.9297 22.0383 70.7664 15.875 63.1484 15.875H29.4609ZM66.4023 21.6172C67.6714 21.6172 68.8886 22.1213 69.786 23.0187C70.6834 23.9161 71.1875 25.1332 71.1875 26.4023C71.1875 27.6714 70.6834 28.8886 69.786 29.786C68.8886 30.6834 67.6714 31.1875 66.4023 31.1875C65.1332 31.1875 63.9161 30.6834 63.0187 29.786C62.1213 28.8886 61.6172 27.6714 61.6172 26.4023C61.6172 25.1332 62.1213 23.9161 63.0187 23.0187C63.9161 22.1213 65.1332 21.6172 66.4023 21.6172ZM46.3047 27.3594C51.3811 27.3594 56.2496 29.376 59.8392 32.9655C63.4287 36.5551 65.4453 41.4236 65.4453 46.5C65.4453 51.5764 63.4287 56.4449 59.8392 60.0345C56.2496 63.624 51.3811 65.6406 46.3047 65.6406C41.2283 65.6406 36.3598 63.624 32.7702 60.0345C29.1807 56.4449 27.1641 51.5764 27.1641 46.5C27.1641 41.4236 29.1807 36.5551 32.7702 32.9655C36.3598 29.376 41.2283 27.3594 46.3047 27.3594ZM46.3047 35.0156C43.2588 35.0156 40.3377 36.2256 38.184 38.3793C36.0303 40.5331 34.8203 43.4542 34.8203 46.5C34.8203 49.5458 36.0303 52.4669 38.184 54.6207C40.3377 56.7744 43.2588 57.9844 46.3047 57.9844C49.3505 57.9844 52.2716 56.7744 54.4254 54.6207C56.5791 52.4669 57.7891 49.5458 57.7891 46.5C57.7891 43.4542 56.5791 40.5331 54.4254 38.3793C52.2716 36.2256 49.3505 35.0156 46.3047 35.0156Z" fill="#242323"/>
</svg>
